<svg width="24" height="24" viewBox="0 0 24 24" fill="none" xmlns="http://www.w3.org/2000/svg">
<path fill-rule="evenodd" clip-rule="evenodd" d="M9.522 16.4277V6.83862L16.0056 11.6502L9.522 16.4277ZM23.76 5.17844C23.76 5.17844 23.526 2.82554 22.806 1.78985C21.894 0.431679 20.8704 0.424854 20.4012 0.344661C17.0436 2.38419e-07 12.0048 0 12.0048 0H11.9952C11.9952 0 6.9576 2.38419e-07 3.5988 0.344661C3.1296 0.424854 2.1072 0.429973 1.194 1.78985C0.474 2.82554 0.24 5.17844 0.24 5.17844C0.24 5.17844 0 7.93914 0 10.7015V13.2899C0 16.0506 0.24 18.813 0.24 18.813C0.24 18.813 0.474 21.1642 1.194 22.1999C2.106 23.5598 3.306 23.5154 3.84 23.6587C5.76 23.9198 12 24 12 24C12 24 17.0436 23.9898 20.4012 23.6451C20.8704 23.5649 21.894 23.5598 22.806 22.1999C23.526 21.1642 23.76 18.813 23.76 18.813C23.76 18.813 24 16.0506 24 13.2899V10.7015C24 7.93914 23.76 5.17844 23.76 5.17844Z" fill="#E5BB7C"/>
</svg>
